<mxfile host="Electron" modified="2024-11-13T14:01:45.132Z" agent="Mozilla/5.0 (Windows NT 10.0; Win64; x64) AppleWebKit/537.36 (KHTML, like Gecko) draw.io/22.1.16 Chrome/120.0.6099.109 Electron/28.1.0 Safari/537.36" etag="iLpeqhIBev1wSUQCPocS" version="22.1.16" type="device">
  <diagram name="Page-1" id="4cLpT11_sbqyCf1jBhfF">
    <mxGraphModel dx="691" dy="-1" grid="0" gridSize="10" guides="1" tooltips="1" connect="1" arrows="1" fold="1" page="0" pageScale="1" pageWidth="827" pageHeight="1169" background="#2b2b2b" math="0" shadow="0">
      <root>
        <mxCell id="0" />
        <mxCell id="1" parent="0" />
        <mxCell id="7u_rVeXJhvl1PEzHxt-7-2" value="NFC Card&lt;br&gt;&lt;i style=&quot;font-size: 10px;&quot;&gt;(Core)&lt;/i&gt;" style="ellipse;whiteSpace=wrap;html=1;aspect=fixed;rounded=1;labelBackgroundColor=none;" parent="1" vertex="1">
          <mxGeometry x="370" y="480" width="80" height="80" as="geometry" />
        </mxCell>
        <mxCell id="7u_rVeXJhvl1PEzHxt-7-5" value="API Web&lt;br&gt;&lt;font style=&quot;font-size: 10px;&quot;&gt;&lt;i&gt;(LandAPI)&lt;/i&gt;&lt;/font&gt;" style="ellipse;whiteSpace=wrap;html=1;aspect=fixed;rounded=1;labelBackgroundColor=none;" parent="1" vertex="1">
          <mxGeometry x="240" y="480" width="80" height="80" as="geometry" />
        </mxCell>
        <mxCell id="7u_rVeXJhvl1PEzHxt-7-8" value="PokeLander FIGHT&lt;br&gt;&lt;font style=&quot;font-size: 10px;&quot;&gt;&lt;i&gt;(Game exemple)&lt;/i&gt;&lt;/font&gt;" style="rounded=0;whiteSpace=wrap;html=1;labelBackgroundColor=none;" parent="1" vertex="1">
          <mxGeometry x="350" y="720" width="120" height="60" as="geometry" />
        </mxCell>
        <mxCell id="7u_rVeXJhvl1PEzHxt-7-9" value="Portal&lt;br&gt;&lt;font style=&quot;font-size: 10px;&quot;&gt;&lt;i&gt;(NFC reader)&lt;/i&gt;&lt;/font&gt;" style="rounded=1;whiteSpace=wrap;html=1;labelBackgroundColor=none;" parent="1" vertex="1">
          <mxGeometry x="350" y="610" width="120" height="60" as="geometry" />
        </mxCell>
        <mxCell id="7u_rVeXJhvl1PEzHxt-7-10" value="" style="endArrow=none;html=1;rounded=1;entryX=0;entryY=0.5;entryDx=0;entryDy=0;endFill=0;startArrow=classic;startFill=1;labelBackgroundColor=none;fontColor=default;" parent="1" source="Wxr4_pKCXOnWwSfz34cp-1" target="7u_rVeXJhvl1PEzHxt-7-8" edge="1">
          <mxGeometry width="50" height="50" relative="1" as="geometry">
            <mxPoint x="250" y="640" as="sourcePoint" />
            <mxPoint x="300" y="590" as="targetPoint" />
            <Array as="points">
              <mxPoint x="280" y="750" />
            </Array>
          </mxGeometry>
        </mxCell>
        <mxCell id="7u_rVeXJhvl1PEzHxt-7-11" value="" style="endArrow=classic;startArrow=classic;html=1;rounded=1;labelBackgroundColor=none;fontColor=default;" parent="1" edge="1">
          <mxGeometry width="50" height="50" relative="1" as="geometry">
            <mxPoint x="409.9" y="610" as="sourcePoint" />
            <mxPoint x="409.9" y="560" as="targetPoint" />
          </mxGeometry>
        </mxCell>
        <mxCell id="7u_rVeXJhvl1PEzHxt-7-17" value="Read Only" style="edgeLabel;html=1;align=center;verticalAlign=middle;resizable=0;points=[];rounded=1;labelBackgroundColor=none;" parent="7u_rVeXJhvl1PEzHxt-7-11" vertex="1" connectable="0">
          <mxGeometry x="0.024" relative="1" as="geometry">
            <mxPoint x="-95" y="111" as="offset" />
          </mxGeometry>
        </mxCell>
        <mxCell id="7u_rVeXJhvl1PEzHxt-7-12" value="" style="endArrow=classic;startArrow=classic;html=1;rounded=1;labelBackgroundColor=none;fontColor=default;" parent="1" source="7u_rVeXJhvl1PEzHxt-7-8" target="7u_rVeXJhvl1PEzHxt-7-9" edge="1">
          <mxGeometry width="50" height="50" relative="1" as="geometry">
            <mxPoint x="560" y="740" as="sourcePoint" />
            <mxPoint x="610" y="690" as="targetPoint" />
          </mxGeometry>
        </mxCell>
        <mxCell id="7u_rVeXJhvl1PEzHxt-7-16" value="Read / Write" style="edgeLabel;html=1;align=center;verticalAlign=middle;resizable=0;points=[];rounded=1;labelBackgroundColor=none;" parent="7u_rVeXJhvl1PEzHxt-7-12" vertex="1" connectable="0">
          <mxGeometry x="0.024" relative="1" as="geometry">
            <mxPoint x="40" y="1" as="offset" />
          </mxGeometry>
        </mxCell>
        <mxCell id="Wxr4_pKCXOnWwSfz34cp-1" value="Server&lt;br&gt;(Microsoft Azure)" style="rounded=1;whiteSpace=wrap;html=1;labelBackgroundColor=none;" vertex="1" parent="1">
          <mxGeometry x="220" y="610" width="120" height="60" as="geometry" />
        </mxCell>
        <mxCell id="Wxr4_pKCXOnWwSfz34cp-2" value="" style="endArrow=none;html=1;rounded=1;endFill=0;startArrow=classic;startFill=1;labelBackgroundColor=none;fontColor=default;" edge="1" parent="1" source="7u_rVeXJhvl1PEzHxt-7-5" target="Wxr4_pKCXOnWwSfz34cp-1">
          <mxGeometry width="50" height="50" relative="1" as="geometry">
            <mxPoint x="290" y="680" as="sourcePoint" />
            <mxPoint x="360" y="760" as="targetPoint" />
            <Array as="points" />
          </mxGeometry>
        </mxCell>
      </root>
    </mxGraphModel>
  </diagram>
</mxfile>
